ply
format ascii 1.0
comment Created by Blender 2.83.3 - www.blender.org, source file: 'obsttask204.blend'
element vertex 534
property float x
property float y
property float z
property float nx
property float ny
property float nz
property float s
property float t
element face 142
property list uchar uint vertex_indices
end_header
1.507814 2.327088 -0.129383 0.577349 0.577349 -0.577349 0.625000 0.500000
1.507814 2.327088 0.129383 0.577349 0.577349 0.577349 0.875000 0.500000
1.507814 -2.327088 0.129383 0.577349 -0.577349 0.577349 0.875000 0.750000
1.507814 -2.327088 -0.129383 0.577349 -0.577349 -0.577349 0.625000 0.750000
-1.507814 -2.327088 -0.129383 -0.577349 -0.577349 -0.577349 0.375000 0.750000
1.507814 -2.327088 0.129383 0.577349 -0.577349 0.577349 0.625000 1.000000
-1.507814 -2.327088 0.129383 -0.577349 -0.577349 0.577349 0.375000 1.000000
-1.507814 -2.327088 0.129383 -0.577349 -0.577349 0.577349 0.375000 0.000000
1.507814 -2.327088 0.129383 0.577349 -0.577349 0.577349 0.625000 0.000000
1.507814 2.327088 0.129383 0.577349 0.577349 0.577349 0.625000 0.250000
-1.507814 2.327088 0.129383 -0.577349 0.577349 0.577349 0.375000 0.250000
-1.507814 2.327088 0.129383 -0.577349 0.577349 0.577349 0.125000 0.500000
-1.507814 2.327088 -0.129383 -0.577349 0.577349 -0.577349 0.375000 0.500000
-1.507814 -2.327088 0.129383 -0.577349 -0.577349 0.577349 0.125000 0.750000
0.908277 1.947871 -2.971376 0.000000 0.731742 -0.681539 1.000000 0.500000
0.908277 1.947871 -0.107604 0.000000 0.731742 0.681539 1.000000 1.000000
0.943424 1.943705 -0.107604 0.169561 0.711447 0.681936 0.968750 1.000000
0.943425 1.943705 -2.971376 0.169561 0.711447 -0.681936 0.968750 0.500000
0.977222 1.931367 -0.107604 0.324778 0.654164 0.683035 0.937500 1.000000
0.977222 1.931367 -2.971376 0.324778 0.654164 -0.683035 0.937500 0.500000
1.008369 1.911331 -0.107604 0.455763 0.568926 0.684500 0.906250 1.000000
1.008369 1.911331 -2.971376 0.455763 0.568926 -0.684500 0.906250 0.500000
1.035670 1.884368 -0.107604 0.558763 0.465957 0.686026 0.875000 1.000000
1.035670 1.884368 -2.971376 0.558763 0.465957 -0.686026 0.875000 0.500000
1.058075 1.851514 -0.107604 0.634480 0.353435 0.687368 0.843750 1.000000
1.058075 1.851514 -2.971376 0.634480 0.353435 -0.687368 0.843750 0.500000
1.074724 1.814030 -0.107604 0.685629 0.236702 0.688375 0.812500 1.000000
1.074724 1.814030 -2.971376 0.685629 0.236702 -0.688375 0.812500 0.500000
1.084976 1.773357 -0.107604 0.714988 0.118534 0.688986 0.781250 1.000000
1.084976 1.773357 -2.971376 0.714988 0.118534 -0.688986 0.781250 0.500000
1.088438 1.731060 -0.107604 0.724570 0.000000 0.689200 0.750000 1.000000
1.088438 1.731060 -2.971376 0.724570 0.000000 -0.689200 0.750000 0.500000
1.084976 1.688762 -0.107604 0.714988 -0.118534 0.688986 0.718750 1.000000
1.084976 1.688762 -2.971376 0.714988 -0.118534 -0.688986 0.718750 0.500000
1.074724 1.648090 -0.107604 0.685629 -0.236702 0.688375 0.687500 1.000000
1.074724 1.648090 -2.971376 0.685629 -0.236702 -0.688375 0.687500 0.500000
1.058075 1.610606 -0.107604 0.634480 -0.353435 0.687368 0.656250 1.000000
1.058075 1.610606 -2.971376 0.634480 -0.353435 -0.687368 0.656250 0.500000
1.035670 1.577751 -0.107604 0.558763 -0.465957 0.686026 0.625000 1.000000
1.035670 1.577751 -2.971376 0.558763 -0.465957 -0.686026 0.625000 0.500000
1.008369 1.550788 -0.107604 0.455763 -0.568926 0.684500 0.593750 1.000000
1.008369 1.550788 -2.971376 0.455763 -0.568926 -0.684500 0.593750 0.500000
0.977221 1.530752 -0.107604 0.324778 -0.654164 0.683035 0.562500 1.000000
0.977222 1.530752 -2.971376 0.324778 -0.654164 -0.683035 0.562500 0.500000
0.943424 1.518414 -0.107604 0.169561 -0.711447 0.681936 0.531250 1.000000
0.943424 1.518414 -2.971376 0.169561 -0.711447 -0.681936 0.531250 0.500000
0.908277 1.514248 -0.107604 0.000000 -0.731742 0.681539 0.500000 1.000000
0.908277 1.514248 -2.971376 0.000000 -0.731742 -0.681539 0.500000 0.500000
0.873129 1.518414 -0.107604 -0.169561 -0.711447 0.681936 0.468750 1.000000
0.873129 1.518414 -2.971376 -0.169561 -0.711447 -0.681936 0.468750 0.500000
0.839332 1.530752 -0.107604 -0.324778 -0.654164 0.683035 0.437500 1.000000
0.839332 1.530752 -2.971376 -0.324778 -0.654164 -0.683035 0.437500 0.500000
0.808185 1.550788 -0.107604 -0.455763 -0.568926 0.684500 0.406250 1.000000
0.808185 1.550788 -2.971376 -0.455763 -0.568926 -0.684500 0.406250 0.500000
0.780884 1.577751 -0.107604 -0.558763 -0.465957 0.686026 0.375000 1.000000
0.780883 1.577751 -2.971376 -0.558763 -0.465957 -0.686026 0.375000 0.500000
0.758478 1.610606 -0.107604 -0.634480 -0.353435 0.687368 0.343750 1.000000
0.758478 1.610606 -2.971376 -0.634480 -0.353435 -0.687368 0.343750 0.500000
0.741829 1.648090 -0.107604 -0.685629 -0.236702 0.688375 0.312500 1.000000
0.741829 1.648090 -2.971376 -0.685629 -0.236702 -0.688345 0.312500 0.500000
0.731577 1.688762 -0.107604 -0.714988 -0.118534 0.688986 0.281250 1.000000
0.731577 1.688762 -2.971376 -0.714988 -0.118534 -0.688986 0.281250 0.500000
0.728116 1.731060 -0.107604 -0.724570 0.000000 0.689200 0.250000 1.000000
0.728116 1.731060 -2.971376 -0.724570 0.000000 -0.689200 0.250000 0.500000
0.731577 1.773358 -0.107604 -0.714988 0.118534 0.688986 0.218750 1.000000
0.731577 1.773358 -2.971376 -0.714988 0.118534 -0.688986 0.218750 0.500000
0.741830 1.814030 -0.107604 -0.685629 0.236702 0.688345 0.187500 1.000000
0.741830 1.814030 -2.971376 -0.685629 0.236702 -0.688345 0.187500 0.500000
0.758478 1.851514 -0.107604 -0.634480 0.353435 0.687368 0.156250 1.000000
0.758478 1.851514 -2.971376 -0.634480 0.353435 -0.687368 0.156250 0.500000
0.780884 1.884368 -0.107604 -0.558763 0.465957 0.686026 0.125000 1.000000
0.780884 1.884368 -2.971376 -0.558763 0.465957 -0.686026 0.125000 0.500000
0.808185 1.911332 -0.107604 -0.455763 0.568926 0.684500 0.093750 1.000000
0.808185 1.911332 -2.971376 -0.455763 0.568926 -0.684500 0.093750 0.500000
0.839332 1.931367 -0.107604 -0.324778 0.654164 0.683035 0.062500 1.000000
0.839332 1.931367 -2.971376 -0.324778 0.654164 -0.683035 0.062500 0.500000
0.943424 1.943705 -0.107604 0.169561 0.711447 0.681936 0.296822 0.485388
0.908277 1.947871 -0.107604 0.000000 0.731742 0.681539 0.250000 0.490000
0.873129 1.943705 -0.107604 -0.169561 0.711447 0.681936 0.203179 0.485389
0.839332 1.931367 -0.107604 -0.324778 0.654164 0.683035 0.158156 0.471731
0.808185 1.911332 -0.107604 -0.455763 0.568926 0.684500 0.116663 0.449553
0.780884 1.884368 -0.107604 -0.558763 0.465957 0.686026 0.080295 0.419706
0.758478 1.851514 -0.107604 -0.634480 0.353435 0.687368 0.050447 0.383337
0.741830 1.814030 -0.107604 -0.685629 0.236702 0.688345 0.028269 0.341844
0.731577 1.773358 -0.107604 -0.714988 0.118534 0.688986 0.014612 0.296822
0.728116 1.731060 -0.107604 -0.724570 0.000000 0.689200 0.010000 0.250000
0.731577 1.688762 -0.107604 -0.714988 -0.118534 0.688986 0.014611 0.203179
0.741829 1.648090 -0.107604 -0.685629 -0.236702 0.688375 0.028269 0.158156
0.758478 1.610606 -0.107604 -0.634480 -0.353435 0.687368 0.050447 0.116663
0.780884 1.577751 -0.107604 -0.558763 -0.465957 0.686026 0.080294 0.080294
0.808185 1.550788 -0.107604 -0.455763 -0.568926 0.684500 0.116663 0.050447
0.839332 1.530752 -0.107604 -0.324778 -0.654164 0.683035 0.158156 0.028269
0.873129 1.518414 -0.107604 -0.169561 -0.711447 0.681936 0.203178 0.014612
0.908277 1.514248 -0.107604 0.000000 -0.731742 0.681539 0.250000 0.010000
0.943424 1.518414 -0.107604 0.169561 -0.711447 0.681936 0.296822 0.014612
0.977221 1.530752 -0.107604 0.324778 -0.654164 0.683035 0.341844 0.028269
1.008369 1.550788 -0.107604 0.455763 -0.568926 0.684500 0.383337 0.050447
1.035670 1.577751 -0.107604 0.558763 -0.465957 0.686026 0.419706 0.080294
1.058075 1.610606 -0.107604 0.634480 -0.353435 0.687368 0.449553 0.116663
1.074724 1.648090 -0.107604 0.685629 -0.236702 0.688375 0.471731 0.158156
1.084976 1.688762 -0.107604 0.714988 -0.118534 0.688986 0.485388 0.203178
1.088438 1.731060 -0.107604 0.724570 0.000000 0.689200 0.490000 0.250000
1.084976 1.773357 -0.107604 0.714988 0.118534 0.688986 0.485388 0.296822
1.074724 1.814030 -0.107604 0.685629 0.236702 0.688375 0.471731 0.341844
1.058075 1.851514 -0.107604 0.634480 0.353435 0.687368 0.449553 0.383337
1.035670 1.884368 -0.107604 0.558763 0.465957 0.686026 0.419706 0.419706
1.008369 1.911331 -0.107604 0.455763 0.568926 0.684500 0.383337 0.449553
0.977222 1.931367 -0.107604 0.324778 0.654164 0.683035 0.341844 0.471731
0.873129 1.943705 -0.107604 -0.169561 0.711447 0.681936 0.031250 1.000000
0.873129 1.943705 -2.971376 -0.169561 0.711447 -0.681936 0.031250 0.500000
0.908277 1.947871 -0.107604 0.000000 0.731742 0.681539 0.000000 1.000000
0.908277 1.947871 -2.971376 0.000000 0.731742 -0.681539 0.000000 0.500000
0.908277 1.947871 -2.971376 0.000000 0.731742 -0.681539 0.750000 0.490000
0.943425 1.943705 -2.971376 0.169561 0.711447 -0.681936 0.796822 0.485388
0.977222 1.931367 -2.971376 0.324778 0.654164 -0.683035 0.841844 0.471731
1.008369 1.911331 -2.971376 0.455763 0.568926 -0.684500 0.883337 0.449553
1.035670 1.884368 -2.971376 0.558763 0.465957 -0.686026 0.919706 0.419706
1.058075 1.851514 -2.971376 0.634480 0.353435 -0.687368 0.949553 0.383337
1.074724 1.814030 -2.971376 0.685629 0.236702 -0.688375 0.971731 0.341844
1.084976 1.773357 -2.971376 0.714988 0.118534 -0.688986 0.985388 0.296822
1.088438 1.731060 -2.971376 0.724570 0.000000 -0.689200 0.990000 0.250000
1.084976 1.688762 -2.971376 0.714988 -0.118534 -0.688986 0.985388 0.203178
1.074724 1.648090 -2.971376 0.685629 -0.236702 -0.688375 0.971731 0.158156
1.058075 1.610606 -2.971376 0.634480 -0.353435 -0.687368 0.949553 0.116663
1.035670 1.577751 -2.971376 0.558763 -0.465957 -0.686026 0.919706 0.080294
1.008369 1.550788 -2.971376 0.455763 -0.568926 -0.684500 0.883337 0.050447
0.977222 1.530752 -2.971376 0.324778 -0.654164 -0.683035 0.841844 0.028269
0.943424 1.518414 -2.971376 0.169561 -0.711447 -0.681936 0.796822 0.014612
0.908277 1.514248 -2.971376 0.000000 -0.731742 -0.681539 0.750000 0.010000
0.873129 1.518414 -2.971376 -0.169561 -0.711447 -0.681936 0.703178 0.014612
0.839332 1.530752 -2.971376 -0.324778 -0.654164 -0.683035 0.658156 0.028269
0.808185 1.550788 -2.971376 -0.455763 -0.568926 -0.684500 0.616663 0.050447
0.780883 1.577751 -2.971376 -0.558763 -0.465957 -0.686026 0.580294 0.080294
0.758478 1.610606 -2.971376 -0.634480 -0.353435 -0.687368 0.550447 0.116663
0.741829 1.648090 -2.971376 -0.685629 -0.236702 -0.688345 0.528269 0.158156
0.731577 1.688762 -2.971376 -0.714988 -0.118534 -0.688986 0.514611 0.203179
0.728116 1.731060 -2.971376 -0.724570 0.000000 -0.689200 0.510000 0.250000
0.731577 1.773358 -2.971376 -0.714988 0.118534 -0.688986 0.514612 0.296822
0.741830 1.814030 -2.971376 -0.685629 0.236702 -0.688345 0.528269 0.341844
0.758478 1.851514 -2.971376 -0.634480 0.353435 -0.687368 0.550447 0.383337
0.780884 1.884368 -2.971376 -0.558763 0.465957 -0.686026 0.580295 0.419706
0.808185 1.911332 -2.971376 -0.455763 0.568926 -0.684500 0.616663 0.449553
0.839332 1.931367 -2.971376 -0.324778 0.654164 -0.683035 0.658156 0.471731
0.873129 1.943705 -2.971376 -0.169561 0.711447 -0.681936 0.703179 0.485389
-0.919381 1.947871 -2.971376 0.000000 0.731742 -0.681539 1.000000 0.500000
-0.919381 1.947871 -0.107604 0.000000 0.731742 0.681539 1.000000 1.000000
-0.884234 1.943705 -0.107604 0.169561 0.711447 0.681936 0.968750 1.000000
-0.884234 1.943705 -2.971376 0.169561 0.711447 -0.681936 0.968750 0.500000
-0.850437 1.931367 -0.107604 0.324778 0.654164 0.683035 0.937500 1.000000
-0.850437 1.931367 -2.971376 0.324778 0.654164 -0.683035 0.937500 0.500000
-0.819289 1.911331 -0.107604 0.455763 0.568926 0.684500 0.906250 1.000000
-0.819289 1.911331 -2.971376 0.455763 0.568926 -0.684500 0.906250 0.500000
-0.791988 1.884368 -0.107604 0.558763 0.465957 0.686026 0.875000 1.000000
-0.791988 1.884368 -2.971376 0.558763 0.465957 -0.686026 0.875000 0.500000
-0.769583 1.851514 -0.107604 0.634480 0.353435 0.687368 0.843750 1.000000
-0.769583 1.851514 -2.971376 0.634480 0.353435 -0.687368 0.843750 0.500000
-0.752934 1.814030 -0.107604 0.685629 0.236702 0.688375 0.812500 1.000000
-0.752934 1.814030 -2.971376 0.685629 0.236702 -0.688375 0.812500 0.500000
-0.742682 1.773357 -0.107604 0.714988 0.118534 0.688986 0.781250 1.000000
-0.742682 1.773357 -2.971376 0.714988 0.118534 -0.688986 0.781250 0.500000
-0.739220 1.731060 -0.107604 0.724570 0.000000 0.689200 0.750000 1.000000
-0.739220 1.731060 -2.971376 0.724570 0.000000 -0.689200 0.750000 0.500000
-0.742682 1.688762 -0.107604 0.714988 -0.118534 0.688986 0.718750 1.000000
-0.742682 1.688762 -2.971376 0.714988 -0.118534 -0.688986 0.718750 0.500000
-0.752934 1.648090 -0.107604 0.685629 -0.236702 0.688375 0.687500 1.000000
-0.752934 1.648090 -2.971376 0.685629 -0.236702 -0.688375 0.687500 0.500000
-0.769583 1.610606 -0.107604 0.634480 -0.353435 0.687368 0.656250 1.000000
-0.769583 1.610606 -2.971376 0.634480 -0.353435 -0.687368 0.656250 0.500000
-0.791988 1.577751 -0.107604 0.558763 -0.465957 0.686026 0.625000 1.000000
-0.791988 1.577751 -2.971376 0.558763 -0.465957 -0.686026 0.625000 0.500000
-0.819289 1.550788 -0.107604 0.455763 -0.568926 0.684500 0.593750 1.000000
-0.819289 1.550788 -2.971376 0.455763 -0.568926 -0.684500 0.593750 0.500000
-0.850437 1.530752 -0.107604 0.324778 -0.654164 0.683035 0.562500 1.000000
-0.850437 1.530752 -2.971376 0.324778 -0.654164 -0.683035 0.562500 0.500000
-0.884234 1.518414 -0.107604 0.169561 -0.711447 0.681936 0.531250 1.000000
-0.884234 1.518414 -2.971376 0.169561 -0.711447 -0.681936 0.531250 0.500000
-0.919381 1.514248 -0.107604 0.000000 -0.731742 0.681539 0.500000 1.000000
-0.919381 1.514248 -2.971376 0.000000 -0.731742 -0.681539 0.500000 0.500000
-0.954529 1.518414 -0.107604 -0.169561 -0.711447 0.681936 0.468750 1.000000
-0.954529 1.518414 -2.971376 -0.169561 -0.711447 -0.681936 0.468750 0.500000
-0.988326 1.530752 -0.107604 -0.324778 -0.654164 0.683035 0.437500 1.000000
-0.988326 1.530752 -2.971376 -0.324778 -0.654164 -0.683035 0.437500 0.500000
-1.019474 1.550788 -0.107604 -0.455763 -0.568926 0.684500 0.406250 1.000000
-1.019474 1.550788 -2.971376 -0.455763 -0.568926 -0.684500 0.406250 0.500000
-1.046775 1.577751 -0.107604 -0.558763 -0.465957 0.686026 0.375000 1.000000
-1.046775 1.577751 -2.971376 -0.558763 -0.465957 -0.686026 0.375000 0.500000
-1.069180 1.610606 -0.107604 -0.634480 -0.353435 0.687368 0.343750 1.000000
-1.069180 1.610606 -2.971376 -0.634480 -0.353435 -0.687368 0.343750 0.500000
-1.085829 1.648090 -0.107604 -0.685629 -0.236702 0.688375 0.312500 1.000000
-1.085829 1.648090 -2.971376 -0.685629 -0.236702 -0.688345 0.312500 0.500000
-1.096081 1.688762 -0.107604 -0.714988 -0.118534 0.688986 0.281250 1.000000
-1.096081 1.688762 -2.971376 -0.714988 -0.118534 -0.688986 0.281250 0.500000
-1.099542 1.731060 -0.107604 -0.724570 0.000000 0.689200 0.250000 1.000000
-1.099542 1.731060 -2.971376 -0.724570 0.000000 -0.689200 0.250000 0.500000
-1.096081 1.773358 -0.107604 -0.714988 0.118534 0.688986 0.218750 1.000000
-1.096081 1.773358 -2.971376 -0.714988 0.118534 -0.688986 0.218750 0.500000
-1.085828 1.814030 -0.107604 -0.685629 0.236702 0.688345 0.187500 1.000000
-1.085828 1.814030 -2.971376 -0.685629 0.236702 -0.688345 0.187500 0.500000
-1.069180 1.851514 -0.107604 -0.634480 0.353435 0.687368 0.156250 1.000000
-1.069180 1.851514 -2.971376 -0.634480 0.353435 -0.687368 0.156250 0.500000
-1.046774 1.884368 -0.107604 -0.558763 0.465957 0.686026 0.125000 1.000000
-1.046774 1.884368 -2.971376 -0.558763 0.465957 -0.686026 0.125000 0.500000
-1.019473 1.911332 -0.107604 -0.455763 0.568926 0.684500 0.093750 1.000000
-1.019473 1.911332 -2.971376 -0.455763 0.568926 -0.684500 0.093750 0.500000
-0.988326 1.931367 -0.107604 -0.324778 0.654164 0.683035 0.062500 1.000000
-0.988326 1.931367 -2.971376 -0.324778 0.654164 -0.683035 0.062500 0.500000
-0.884234 1.943705 -0.107604 0.169561 0.711447 0.681936 0.296822 0.485388
-0.919381 1.947871 -0.107604 0.000000 0.731742 0.681539 0.250000 0.490000
-0.954529 1.943705 -0.107604 -0.169561 0.711447 0.681936 0.203179 0.485389
-0.988326 1.931367 -0.107604 -0.324778 0.654164 0.683035 0.158156 0.471731
-1.019473 1.911332 -0.107604 -0.455763 0.568926 0.684500 0.116663 0.449553
-1.046774 1.884368 -0.107604 -0.558763 0.465957 0.686026 0.080295 0.419706
-1.069180 1.851514 -0.107604 -0.634480 0.353435 0.687368 0.050447 0.383337
-1.085828 1.814030 -0.107604 -0.685629 0.236702 0.688345 0.028269 0.341844
-1.096081 1.773358 -0.107604 -0.714988 0.118534 0.688986 0.014612 0.296822
-1.099542 1.731060 -0.107604 -0.724570 0.000000 0.689200 0.010000 0.250000
-1.096081 1.688762 -0.107604 -0.714988 -0.118534 0.688986 0.014611 0.203179
-1.085829 1.648090 -0.107604 -0.685629 -0.236702 0.688375 0.028269 0.158156
-1.069180 1.610606 -0.107604 -0.634480 -0.353435 0.687368 0.050447 0.116663
-1.046775 1.577751 -0.107604 -0.558763 -0.465957 0.686026 0.080294 0.080294
-1.019474 1.550788 -0.107604 -0.455763 -0.568926 0.684500 0.116663 0.050447
-0.988326 1.530752 -0.107604 -0.324778 -0.654164 0.683035 0.158156 0.028269
-0.954529 1.518414 -0.107604 -0.169561 -0.711447 0.681936 0.203178 0.014612
-0.919381 1.514248 -0.107604 0.000000 -0.731742 0.681539 0.250000 0.010000
-0.884234 1.518414 -0.107604 0.169561 -0.711447 0.681936 0.296822 0.014612
-0.850437 1.530752 -0.107604 0.324778 -0.654164 0.683035 0.341844 0.028269
-0.819289 1.550788 -0.107604 0.455763 -0.568926 0.684500 0.383337 0.050447
-0.791988 1.577751 -0.107604 0.558763 -0.465957 0.686026 0.419706 0.080294
-0.769583 1.610606 -0.107604 0.634480 -0.353435 0.687368 0.449553 0.116663
-0.752934 1.648090 -0.107604 0.685629 -0.236702 0.688375 0.471731 0.158156
-0.742682 1.688762 -0.107604 0.714988 -0.118534 0.688986 0.485388 0.203178
-0.739220 1.731060 -0.107604 0.724570 0.000000 0.689200 0.490000 0.250000
-0.742682 1.773357 -0.107604 0.714988 0.118534 0.688986 0.485388 0.296822
-0.752934 1.814030 -0.107604 0.685629 0.236702 0.688375 0.471731 0.341844
-0.769583 1.851514 -0.107604 0.634480 0.353435 0.687368 0.449553 0.383337
-0.791988 1.884368 -0.107604 0.558763 0.465957 0.686026 0.419706 0.419706
-0.819289 1.911331 -0.107604 0.455763 0.568926 0.684500 0.383337 0.449553
-0.850437 1.931367 -0.107604 0.324778 0.654164 0.683035 0.341844 0.471731
-0.954529 1.943705 -0.107604 -0.169561 0.711447 0.681936 0.031250 1.000000
-0.954529 1.943705 -2.971376 -0.169561 0.711447 -0.681936 0.031250 0.500000
-0.919381 1.947871 -0.107604 0.000000 0.731742 0.681539 0.000000 1.000000
-0.919381 1.947871 -2.971376 0.000000 0.731742 -0.681539 0.000000 0.500000
-0.919381 1.947871 -2.971376 0.000000 0.731742 -0.681539 0.750000 0.490000
-0.884234 1.943705 -2.971376 0.169561 0.711447 -0.681936 0.796822 0.485388
-0.850437 1.931367 -2.971376 0.324778 0.654164 -0.683035 0.841844 0.471731
-0.819289 1.911331 -2.971376 0.455763 0.568926 -0.684500 0.883337 0.449553
-0.791988 1.884368 -2.971376 0.558763 0.465957 -0.686026 0.919706 0.419706
-0.769583 1.851514 -2.971376 0.634480 0.353435 -0.687368 0.949553 0.383337
-0.752934 1.814030 -2.971376 0.685629 0.236702 -0.688375 0.971731 0.341844
-0.742682 1.773357 -2.971376 0.714988 0.118534 -0.688986 0.985388 0.296822
-0.739220 1.731060 -2.971376 0.724570 0.000000 -0.689200 0.990000 0.250000
-0.742682 1.688762 -2.971376 0.714988 -0.118534 -0.688986 0.985388 0.203178
-0.752934 1.648090 -2.971376 0.685629 -0.236702 -0.688375 0.971731 0.158156
-0.769583 1.610606 -2.971376 0.634480 -0.353435 -0.687368 0.949553 0.116663
-0.791988 1.577751 -2.971376 0.558763 -0.465957 -0.686026 0.919706 0.080294
-0.819289 1.550788 -2.971376 0.455763 -0.568926 -0.684500 0.883337 0.050447
-0.850437 1.530752 -2.971376 0.324778 -0.654164 -0.683035 0.841844 0.028269
-0.884234 1.518414 -2.971376 0.169561 -0.711447 -0.681936 0.796822 0.014612
-0.919381 1.514248 -2.971376 0.000000 -0.731742 -0.681539 0.750000 0.010000
-0.954529 1.518414 -2.971376 -0.169561 -0.711447 -0.681936 0.703178 0.014612
-0.988326 1.530752 -2.971376 -0.324778 -0.654164 -0.683035 0.658156 0.028269
-1.019474 1.550788 -2.971376 -0.455763 -0.568926 -0.684500 0.616663 0.050447
-1.046775 1.577751 -2.971376 -0.558763 -0.465957 -0.686026 0.580294 0.080294
-1.069180 1.610606 -2.971376 -0.634480 -0.353435 -0.687368 0.550447 0.116663
-1.085829 1.648090 -2.971376 -0.685629 -0.236702 -0.688345 0.528269 0.158156
-1.096081 1.688762 -2.971376 -0.714988 -0.118534 -0.688986 0.514611 0.203179
-1.099542 1.731060 -2.971376 -0.724570 0.000000 -0.689200 0.510000 0.250000
-1.096081 1.773358 -2.971376 -0.714988 0.118534 -0.688986 0.514612 0.296822
-1.085828 1.814030 -2.971376 -0.685629 0.236702 -0.688345 0.528269 0.341844
-1.069180 1.851514 -2.971376 -0.634480 0.353435 -0.687368 0.550447 0.383337
-1.046774 1.884368 -2.971376 -0.558763 0.465957 -0.686026 0.580295 0.419706
-1.019473 1.911332 -2.971376 -0.455763 0.568926 -0.684500 0.616663 0.449553
-0.988326 1.931367 -2.971376 -0.324778 0.654164 -0.683035 0.658156 0.471731
-0.954529 1.943705 -2.971376 -0.169561 0.711447 -0.681936 0.703179 0.485389
0.914901 -1.510626 -3.049537 0.000000 0.731742 -0.681539 1.000000 0.500000
0.914901 -1.510626 -0.185765 0.000000 0.731742 0.681539 1.000000 1.000000
0.950049 -1.514792 -0.185765 0.169561 0.711447 0.681936 0.968750 1.000000
0.950049 -1.514792 -3.049537 0.169561 0.711447 -0.681936 0.968750 0.500000
0.983846 -1.527130 -0.185765 0.324778 0.654164 0.683035 0.937500 1.000000
0.983846 -1.527130 -3.049537 0.324778 0.654164 -0.683035 0.937500 0.500000
1.014993 -1.547165 -0.185765 0.455763 0.568926 0.684500 0.906250 1.000000
1.014993 -1.547165 -3.049537 0.455763 0.568926 -0.684500 0.906250 0.500000
1.042294 -1.574129 -0.185765 0.558763 0.465957 0.686026 0.875000 1.000000
1.042294 -1.574129 -3.049537 0.558763 0.465957 -0.686026 0.875000 0.500000
1.064700 -1.606983 -0.185765 0.634480 0.353435 0.687368 0.843750 1.000000
1.064700 -1.606983 -3.049537 0.634480 0.353435 -0.687368 0.843750 0.500000
1.081348 -1.644467 -0.185765 0.685629 0.236702 0.688375 0.812500 1.000000
1.081348 -1.644467 -3.049537 0.685629 0.236702 -0.688375 0.812500 0.500000
1.091601 -1.685139 -0.185765 0.714988 0.118534 0.688986 0.781250 1.000000
1.091601 -1.685139 -3.049537 0.714988 0.118534 -0.688986 0.781250 0.500000
1.095062 -1.727437 -0.185765 0.724570 0.000000 0.689200 0.750000 1.000000
1.095062 -1.727437 -3.049537 0.724570 0.000000 -0.689200 0.750000 0.500000
1.091601 -1.769735 -0.185765 0.714988 -0.118534 0.688986 0.718750 1.000000
1.091601 -1.769735 -3.049537 0.714988 -0.118534 -0.688986 0.718750 0.500000
1.081348 -1.810407 -0.185765 0.685629 -0.236702 0.688375 0.687500 1.000000
1.081348 -1.810407 -3.049537 0.685629 -0.236702 -0.688375 0.687500 0.500000
1.064700 -1.847891 -0.185765 0.634480 -0.353435 0.687368 0.656250 1.000000
1.064700 -1.847891 -3.049537 0.634480 -0.353435 -0.687368 0.656250 0.500000
1.042294 -1.880746 -0.185765 0.558763 -0.465957 0.686026 0.625000 1.000000
1.042294 -1.880746 -3.049537 0.558763 -0.465957 -0.686026 0.625000 0.500000
1.014993 -1.907709 -0.185765 0.455763 -0.568926 0.684500 0.593750 1.000000
1.014993 -1.907709 -3.049537 0.455763 -0.568926 -0.684500 0.593750 0.500000
0.983846 -1.927745 -0.185765 0.324778 -0.654164 0.683035 0.562500 1.000000
0.983846 -1.927745 -3.049537 0.324778 -0.654164 -0.683035 0.562500 0.500000
0.950049 -1.940082 -0.185765 0.169561 -0.711447 0.681936 0.531250 1.000000
0.950049 -1.940082 -3.049537 0.169561 -0.711447 -0.681936 0.531250 0.500000
0.914901 -1.944248 -0.185765 0.000000 -0.731742 0.681539 0.500000 1.000000
0.914901 -1.944248 -3.049537 0.000000 -0.731742 -0.681539 0.500000 0.500000
0.879753 -1.940082 -0.185765 -0.169561 -0.711447 0.681936 0.468750 1.000000
0.879753 -1.940082 -3.049537 -0.169561 -0.711447 -0.681936 0.468750 0.500000
0.845956 -1.927745 -0.185765 -0.324778 -0.654164 0.683035 0.437500 1.000000
0.845956 -1.927745 -3.049537 -0.324778 -0.654164 -0.683035 0.437500 0.500000
0.814809 -1.907709 -0.185765 -0.455763 -0.568926 0.684500 0.406250 1.000000
0.814809 -1.907709 -3.049537 -0.455763 -0.568926 -0.684500 0.406250 0.500000
0.787508 -1.880746 -0.185765 -0.558763 -0.465957 0.686026 0.375000 1.000000
0.787508 -1.880746 -3.049537 -0.558763 -0.465957 -0.686026 0.375000 0.500000
0.765102 -1.847891 -0.185765 -0.634480 -0.353435 0.687368 0.343750 1.000000
0.765102 -1.847891 -3.049537 -0.634480 -0.353435 -0.687368 0.343750 0.500000
0.748454 -1.810407 -0.185765 -0.685629 -0.236702 0.688375 0.312500 1.000000
0.748454 -1.810407 -3.049537 -0.685629 -0.236702 -0.688375 0.312500 0.500000
0.738201 -1.769735 -0.185765 -0.714988 -0.118534 0.688986 0.281250 1.000000
0.738202 -1.769735 -3.049537 -0.714988 -0.118534 -0.688986 0.281250 0.500000
0.734740 -1.727437 -0.185765 -0.724570 0.000000 0.689200 0.250000 1.000000
0.734740 -1.727437 -3.049537 -0.724570 0.000000 -0.689200 0.250000 0.500000
0.738202 -1.685139 -0.185765 -0.714988 0.118534 0.688986 0.218750 1.000000
0.738202 -1.685139 -3.049537 -0.714988 0.118534 -0.688986 0.218750 0.500000
0.748454 -1.644467 -0.185765 -0.685629 0.236702 0.688345 0.187500 1.000000
0.748454 -1.644467 -3.049537 -0.685629 0.236702 -0.688375 0.187500 0.500000
0.765103 -1.606983 -0.185765 -0.634480 0.353435 0.687368 0.156250 1.000000
0.765103 -1.606983 -3.049537 -0.634480 0.353435 -0.687368 0.156250 0.500000
0.787508 -1.574128 -0.185765 -0.558763 0.465957 0.686026 0.125000 1.000000
0.787508 -1.574128 -3.049537 -0.558763 0.465957 -0.686026 0.125000 0.500000
0.814809 -1.547165 -0.185765 -0.455763 0.568926 0.684500 0.093750 1.000000
0.814809 -1.547165 -3.049537 -0.455763 0.568926 -0.684500 0.093750 0.500000
0.845957 -1.527130 -0.185765 -0.324778 0.654164 0.683035 0.062500 1.000000
0.845957 -1.527130 -3.049537 -0.324778 0.654164 -0.683035 0.062500 0.500000
0.950049 -1.514792 -0.185765 0.169561 0.711447 0.681936 0.296822 0.485388
0.914901 -1.510626 -0.185765 0.000000 0.731742 0.681539 0.250000 0.490000
0.879754 -1.514792 -0.185765 -0.169561 0.711447 0.681936 0.203179 0.485389
0.845957 -1.527130 -0.185765 -0.324778 0.654164 0.683035 0.158156 0.471731
0.814809 -1.547165 -0.185765 -0.455763 0.568926 0.684500 0.116663 0.449553
0.787508 -1.574128 -0.185765 -0.558763 0.465957 0.686026 0.080295 0.419706
0.765103 -1.606983 -0.185765 -0.634480 0.353435 0.687368 0.050447 0.383337
0.748454 -1.644467 -0.185765 -0.685629 0.236702 0.688345 0.028269 0.341844
0.738202 -1.685139 -0.185765 -0.714988 0.118534 0.688986 0.014612 0.296822
0.734740 -1.727437 -0.185765 -0.724570 0.000000 0.689200 0.010000 0.250000
0.738201 -1.769735 -0.185765 -0.714988 -0.118534 0.688986 0.014611 0.203179
0.748454 -1.810407 -0.185765 -0.685629 -0.236702 0.688375 0.028269 0.158156
0.765102 -1.847891 -0.185765 -0.634480 -0.353435 0.687368 0.050447 0.116663
0.787508 -1.880746 -0.185765 -0.558763 -0.465957 0.686026 0.080294 0.080294
0.814809 -1.907709 -0.185765 -0.455763 -0.568926 0.684500 0.116663 0.050447
0.845956 -1.927745 -0.185765 -0.324778 -0.654164 0.683035 0.158156 0.028269
0.879753 -1.940082 -0.185765 -0.169561 -0.711447 0.681936 0.203178 0.014612
0.914901 -1.944248 -0.185765 0.000000 -0.731742 0.681539 0.250000 0.010000
0.950049 -1.940082 -0.185765 0.169561 -0.711447 0.681936 0.296822 0.014612
0.983846 -1.927745 -0.185765 0.324778 -0.654164 0.683035 0.341844 0.028269
1.014993 -1.907709 -0.185765 0.455763 -0.568926 0.684500 0.383337 0.050447
1.042294 -1.880746 -0.185765 0.558763 -0.465957 0.686026 0.419706 0.080294
1.064700 -1.847891 -0.185765 0.634480 -0.353435 0.687368 0.449553 0.116663
1.081348 -1.810407 -0.185765 0.685629 -0.236702 0.688375 0.471731 0.158156
1.091601 -1.769735 -0.185765 0.714988 -0.118534 0.688986 0.485388 0.203178
1.095062 -1.727437 -0.185765 0.724570 0.000000 0.689200 0.490000 0.250000
1.091601 -1.685139 -0.185765 0.714988 0.118534 0.688986 0.485388 0.296822
1.081348 -1.644467 -0.185765 0.685629 0.236702 0.688375 0.471731 0.341844
1.064700 -1.606983 -0.185765 0.634480 0.353435 0.687368 0.449553 0.383337
1.042294 -1.574129 -0.185765 0.558763 0.465957 0.686026 0.419706 0.419706
1.014993 -1.547165 -0.185765 0.455763 0.568926 0.684500 0.383337 0.449553
0.983846 -1.527130 -0.185765 0.324778 0.654164 0.683035 0.341844 0.471731
0.879754 -1.514792 -0.185765 -0.169561 0.711447 0.681936 0.031250 1.000000
0.879754 -1.514792 -3.049537 -0.169561 0.711447 -0.681936 0.031250 0.500000
0.914901 -1.510626 -0.185765 0.000000 0.731742 0.681539 0.000000 1.000000
0.914901 -1.510626 -3.049537 0.000000 0.731742 -0.681539 0.000000 0.500000
0.914901 -1.510626 -3.049537 0.000000 0.731742 -0.681539 0.750000 0.490000
0.950049 -1.514792 -3.049537 0.169561 0.711447 -0.681936 0.796822 0.485388
0.983846 -1.527130 -3.049537 0.324778 0.654164 -0.683035 0.841844 0.471731
1.014993 -1.547165 -3.049537 0.455763 0.568926 -0.684500 0.883337 0.449553
1.042294 -1.574129 -3.049537 0.558763 0.465957 -0.686026 0.919706 0.419706
1.064700 -1.606983 -3.049537 0.634480 0.353435 -0.687368 0.949553 0.383337
1.081348 -1.644467 -3.049537 0.685629 0.236702 -0.688375 0.971731 0.341844
1.091601 -1.685139 -3.049537 0.714988 0.118534 -0.688986 0.985388 0.296822
1.095062 -1.727437 -3.049537 0.724570 0.000000 -0.689200 0.990000 0.250000
1.091601 -1.769735 -3.049537 0.714988 -0.118534 -0.688986 0.985388 0.203178
1.081348 -1.810407 -3.049537 0.685629 -0.236702 -0.688375 0.971731 0.158156
1.064700 -1.847891 -3.049537 0.634480 -0.353435 -0.687368 0.949553 0.116663
1.042294 -1.880746 -3.049537 0.558763 -0.465957 -0.686026 0.919706 0.080294
1.014993 -1.907709 -3.049537 0.455763 -0.568926 -0.684500 0.883337 0.050447
0.983846 -1.927745 -3.049537 0.324778 -0.654164 -0.683035 0.841844 0.028269
0.950049 -1.940082 -3.049537 0.169561 -0.711447 -0.681936 0.796822 0.014612
0.914901 -1.944248 -3.049537 0.000000 -0.731742 -0.681539 0.750000 0.010000
0.879753 -1.940082 -3.049537 -0.169561 -0.711447 -0.681936 0.703178 0.014612
0.845956 -1.927745 -3.049537 -0.324778 -0.654164 -0.683035 0.658156 0.028269
0.814809 -1.907709 -3.049537 -0.455763 -0.568926 -0.684500 0.616663 0.050447
0.787508 -1.880746 -3.049537 -0.558763 -0.465957 -0.686026 0.580294 0.080294
0.765102 -1.847891 -3.049537 -0.634480 -0.353435 -0.687368 0.550447 0.116663
0.748454 -1.810407 -3.049537 -0.685629 -0.236702 -0.688375 0.528269 0.158156
0.738202 -1.769735 -3.049537 -0.714988 -0.118534 -0.688986 0.514611 0.203179
0.734740 -1.727437 -3.049537 -0.724570 0.000000 -0.689200 0.510000 0.250000
0.738202 -1.685139 -3.049537 -0.714988 0.118534 -0.688986 0.514612 0.296822
0.748454 -1.644467 -3.049537 -0.685629 0.236702 -0.688375 0.528269 0.341844
0.765103 -1.606983 -3.049537 -0.634480 0.353435 -0.687368 0.550447 0.383337
0.787508 -1.574128 -3.049537 -0.558763 0.465957 -0.686026 0.580295 0.419706
0.814809 -1.547165 -3.049537 -0.455763 0.568926 -0.684500 0.616663 0.449553
0.845957 -1.527130 -3.049537 -0.324778 0.654164 -0.683035 0.658156 0.471731
0.879754 -1.514792 -3.049537 -0.169561 0.711447 -0.681936 0.703179 0.485389
-0.897376 -1.510626 -3.049537 0.000000 0.731742 -0.681539 1.000000 0.500000
-0.897376 -1.510626 -0.185764 0.000000 0.731742 0.681539 1.000000 1.000000
-0.862228 -1.514792 -0.185764 0.169561 0.711447 0.681936 0.968750 1.000000
-0.862228 -1.514792 -3.049537 0.169561 0.711447 -0.681936 0.968750 0.500000
-0.828431 -1.527130 -0.185764 0.324778 0.654164 0.683035 0.937500 1.000000
-0.828431 -1.527130 -3.049537 0.324778 0.654164 -0.683035 0.937500 0.500000
-0.797284 -1.547165 -0.185764 0.455763 0.568926 0.684500 0.906250 1.000000
-0.797284 -1.547165 -3.049537 0.455763 0.568926 -0.684500 0.906250 0.500000
-0.769983 -1.574129 -0.185764 0.558763 0.465957 0.686026 0.875000 1.000000
-0.769983 -1.574129 -3.049537 0.558763 0.465957 -0.686026 0.875000 0.500000
-0.747577 -1.606983 -0.185764 0.634480 0.353435 0.687368 0.843750 1.000000
-0.747577 -1.606983 -3.049537 0.634480 0.353435 -0.687368 0.843750 0.500000
-0.730929 -1.644467 -0.185764 0.685629 0.236702 0.688375 0.812500 1.000000
-0.730929 -1.644467 -3.049537 0.685629 0.236702 -0.688345 0.812500 0.500000
-0.720676 -1.685139 -0.185764 0.714988 0.118534 0.688986 0.781250 1.000000
-0.720676 -1.685139 -3.049537 0.714988 0.118534 -0.688986 0.781250 0.500000
-0.717215 -1.727437 -0.185764 0.724570 0.000000 0.689200 0.750000 1.000000
-0.717215 -1.727437 -3.049537 0.724570 0.000000 -0.689169 0.750000 0.500000
-0.720676 -1.769735 -0.185764 0.714988 -0.118534 0.688986 0.718750 1.000000
-0.720676 -1.769735 -3.049537 0.714988 -0.118534 -0.688986 0.718750 0.500000
-0.730929 -1.810407 -0.185764 0.685629 -0.236702 0.688375 0.687500 1.000000
-0.730929 -1.810407 -3.049537 0.685629 -0.236702 -0.688345 0.687500 0.500000
-0.747577 -1.847891 -0.185764 0.634480 -0.353435 0.687368 0.656250 1.000000
-0.747577 -1.847891 -3.049537 0.634480 -0.353435 -0.687368 0.656250 0.500000
-0.769983 -1.880746 -0.185764 0.558763 -0.465957 0.686026 0.625000 1.000000
-0.769983 -1.880746 -3.049537 0.558763 -0.465957 -0.686026 0.625000 0.500000
-0.797284 -1.907709 -0.185764 0.455763 -0.568926 0.684500 0.593750 1.000000
-0.797284 -1.907709 -3.049537 0.455763 -0.568926 -0.684500 0.593750 0.500000
-0.828431 -1.927745 -0.185764 0.324778 -0.654164 0.683035 0.562500 1.000000
-0.828431 -1.927745 -3.049537 0.324778 -0.654164 -0.683035 0.562500 0.500000
-0.862228 -1.940082 -0.185764 0.169561 -0.711447 0.681936 0.531250 1.000000
-0.862228 -1.940082 -3.049537 0.169561 -0.711447 -0.681936 0.531250 0.500000
-0.897376 -1.944248 -0.185764 0.000000 -0.731742 0.681539 0.500000 1.000000
-0.897376 -1.944248 -3.049537 0.000000 -0.731742 -0.681539 0.500000 0.500000
-0.932524 -1.940082 -0.185764 -0.169561 -0.711447 0.681936 0.468750 1.000000
-0.932524 -1.940082 -3.049537 -0.169561 -0.711447 -0.681936 0.468750 0.500000
-0.966321 -1.927745 -0.185764 -0.324778 -0.654164 0.683035 0.437500 1.000000
-0.966321 -1.927745 -3.049537 -0.324778 -0.654164 -0.683035 0.437500 0.500000
-0.997468 -1.907709 -0.185764 -0.455763 -0.568926 0.684500 0.406250 1.000000
-0.997468 -1.907709 -3.049537 -0.455763 -0.568926 -0.684500 0.406250 0.500000
-1.024769 -1.880746 -0.185764 -0.558763 -0.465957 0.686026 0.375000 1.000000
-1.024769 -1.880746 -3.049537 -0.558763 -0.465957 -0.686026 0.375000 0.500000
-1.047175 -1.847891 -0.185764 -0.634480 -0.353435 0.687368 0.343750 1.000000
-1.047175 -1.847891 -3.049537 -0.634480 -0.353435 -0.687368 0.343750 0.500000
-1.063823 -1.810407 -0.185764 -0.685629 -0.236702 0.688375 0.312500 1.000000
-1.063823 -1.810407 -3.049537 -0.685629 -0.236702 -0.688375 0.312500 0.500000
-1.074075 -1.769735 -0.185764 -0.714988 -0.118534 0.688986 0.281250 1.000000
-1.074075 -1.769735 -3.049537 -0.714988 -0.118534 -0.688986 0.281250 0.500000
-1.077537 -1.727437 -0.185764 -0.724570 0.000000 0.689200 0.250000 1.000000
-1.077537 -1.727437 -3.049537 -0.724570 0.000000 -0.689200 0.250000 0.500000
-1.074075 -1.685139 -0.185764 -0.714988 0.118534 0.688986 0.218750 1.000000
-1.074075 -1.685139 -3.049537 -0.714988 0.118534 -0.688986 0.218750 0.500000
-1.063823 -1.644467 -0.185764 -0.685629 0.236702 0.688345 0.187500 1.000000
-1.063823 -1.644467 -3.049537 -0.685629 0.236702 -0.688375 0.187500 0.500000
-1.047174 -1.606983 -0.185764 -0.634480 0.353435 0.687368 0.156250 1.000000
-1.047174 -1.606983 -3.049537 -0.634480 0.353435 -0.687368 0.156250 0.500000
-1.024769 -1.574128 -0.185764 -0.558763 0.465957 0.686026 0.125000 1.000000
-1.024769 -1.574128 -3.049537 -0.558763 0.465957 -0.686026 0.125000 0.500000
-0.997468 -1.547165 -0.185764 -0.455763 0.568926 0.684500 0.093750 1.000000
-0.997468 -1.547165 -3.049537 -0.455763 0.568926 -0.684500 0.093750 0.500000
-0.966320 -1.527130 -0.185764 -0.324778 0.654164 0.683035 0.062500 1.000000
-0.966320 -1.527130 -3.049537 -0.324778 0.654164 -0.683035 0.062500 0.500000
-0.862228 -1.514792 -0.185764 0.169561 0.711447 0.681936 0.296822 0.485388
-0.897376 -1.510626 -0.185764 0.000000 0.731742 0.681539 0.250000 0.490000
-0.932523 -1.514792 -0.185764 -0.169561 0.711447 0.681936 0.203179 0.485389
-0.966320 -1.527130 -0.185764 -0.324778 0.654164 0.683035 0.158156 0.471731
-0.997468 -1.547165 -0.185764 -0.455763 0.568926 0.684500 0.116663 0.449553
-1.024769 -1.574128 -0.185764 -0.558763 0.465957 0.686026 0.080295 0.419706
-1.047174 -1.606983 -0.185764 -0.634480 0.353435 0.687368 0.050447 0.383337
-1.063823 -1.644467 -0.185764 -0.685629 0.236702 0.688345 0.028269 0.341844
-1.074075 -1.685139 -0.185764 -0.714988 0.118534 0.688986 0.014612 0.296822
-1.077537 -1.727437 -0.185764 -0.724570 0.000000 0.689200 0.010000 0.250000
-1.074075 -1.769735 -0.185764 -0.714988 -0.118534 0.688986 0.014611 0.203179
-1.063823 -1.810407 -0.185764 -0.685629 -0.236702 0.688375 0.028269 0.158156
-1.047175 -1.847891 -0.185764 -0.634480 -0.353435 0.687368 0.050447 0.116663
-1.024769 -1.880746 -0.185764 -0.558763 -0.465957 0.686026 0.080294 0.080294
-0.997468 -1.907709 -0.185764 -0.455763 -0.568926 0.684500 0.116663 0.050447
-0.966321 -1.927745 -0.185764 -0.324778 -0.654164 0.683035 0.158156 0.028269
-0.932524 -1.940082 -0.185764 -0.169561 -0.711447 0.681936 0.203178 0.014612
-0.897376 -1.944248 -0.185764 0.000000 -0.731742 0.681539 0.250000 0.010000
-0.862228 -1.940082 -0.185764 0.169561 -0.711447 0.681936 0.296822 0.014612
-0.828431 -1.927745 -0.185764 0.324778 -0.654164 0.683035 0.341844 0.028269
-0.797284 -1.907709 -0.185764 0.455763 -0.568926 0.684500 0.383337 0.050447
-0.769983 -1.880746 -0.185764 0.558763 -0.465957 0.686026 0.419706 0.080294
-0.747577 -1.847891 -0.185764 0.634480 -0.353435 0.687368 0.449553 0.116663
-0.730929 -1.810407 -0.185764 0.685629 -0.236702 0.688375 0.471731 0.158156
-0.720676 -1.769735 -0.185764 0.714988 -0.118534 0.688986 0.485388 0.203178
-0.717215 -1.727437 -0.185764 0.724570 0.000000 0.689200 0.490000 0.250000
-0.720676 -1.685139 -0.185764 0.714988 0.118534 0.688986 0.485388 0.296822
-0.730929 -1.644467 -0.185764 0.685629 0.236702 0.688375 0.471731 0.341844
-0.747577 -1.606983 -0.185764 0.634480 0.353435 0.687368 0.449553 0.383337
-0.769983 -1.574129 -0.185764 0.558763 0.465957 0.686026 0.419706 0.419706
-0.797284 -1.547165 -0.185764 0.455763 0.568926 0.684500 0.383337 0.449553
-0.828431 -1.527130 -0.185764 0.324778 0.654164 0.683035 0.341844 0.471731
-0.932523 -1.514792 -0.185764 -0.169561 0.711447 0.681936 0.031250 1.000000
-0.932523 -1.514792 -3.049537 -0.169561 0.711447 -0.681936 0.031250 0.500000
-0.897376 -1.510626 -0.185764 0.000000 0.731742 0.681539 0.000000 1.000000
-0.897376 -1.510626 -3.049537 0.000000 0.731742 -0.681539 0.000000 0.500000
-0.897376 -1.510626 -3.049537 0.000000 0.731742 -0.681539 0.750000 0.490000
-0.862228 -1.514792 -3.049537 0.169561 0.711447 -0.681936 0.796822 0.485388
-0.828431 -1.527130 -3.049537 0.324778 0.654164 -0.683035 0.841844 0.471731
-0.797284 -1.547165 -3.049537 0.455763 0.568926 -0.684500 0.883337 0.449553
-0.769983 -1.574129 -3.049537 0.558763 0.465957 -0.686026 0.919706 0.419706
-0.747577 -1.606983 -3.049537 0.634480 0.353435 -0.687368 0.949553 0.383337
-0.730929 -1.644467 -3.049537 0.685629 0.236702 -0.688345 0.971731 0.341844
-0.720676 -1.685139 -3.049537 0.714988 0.118534 -0.688986 0.985388 0.296822
-0.717215 -1.727437 -3.049537 0.724570 0.000000 -0.689169 0.990000 0.250000
-0.720676 -1.769735 -3.049537 0.714988 -0.118534 -0.688986 0.985388 0.203178
-0.730929 -1.810407 -3.049537 0.685629 -0.236702 -0.688345 0.971731 0.158156
-0.747577 -1.847891 -3.049537 0.634480 -0.353435 -0.687368 0.949553 0.116663
-0.769983 -1.880746 -3.049537 0.558763 -0.465957 -0.686026 0.919706 0.080294
-0.797284 -1.907709 -3.049537 0.455763 -0.568926 -0.684500 0.883337 0.050447
-0.828431 -1.927745 -3.049537 0.324778 -0.654164 -0.683035 0.841844 0.028269
-0.862228 -1.940082 -3.049537 0.169561 -0.711447 -0.681936 0.796822 0.014612
-0.897376 -1.944248 -3.049537 0.000000 -0.731742 -0.681539 0.750000 0.010000
-0.932524 -1.940082 -3.049537 -0.169561 -0.711447 -0.681936 0.703178 0.014612
-0.966321 -1.927745 -3.049537 -0.324778 -0.654164 -0.683035 0.658156 0.028269
-0.997468 -1.907709 -3.049537 -0.455763 -0.568926 -0.684500 0.616663 0.050447
-1.024769 -1.880746 -3.049537 -0.558763 -0.465957 -0.686026 0.580294 0.080294
-1.047175 -1.847891 -3.049537 -0.634480 -0.353435 -0.687368 0.550447 0.116663
-1.063823 -1.810407 -3.049537 -0.685629 -0.236702 -0.688375 0.528269 0.158156
-1.074075 -1.769735 -3.049537 -0.714988 -0.118534 -0.688986 0.514611 0.203179
-1.077537 -1.727437 -3.049537 -0.724570 0.000000 -0.689200 0.510000 0.250000
-1.074075 -1.685139 -3.049537 -0.714988 0.118534 -0.688986 0.514612 0.296822
-1.063823 -1.644467 -3.049537 -0.685629 0.236702 -0.688375 0.528269 0.341844
-1.047174 -1.606983 -3.049537 -0.634480 0.353435 -0.687368 0.550447 0.383337
-1.024769 -1.574128 -3.049537 -0.558763 0.465957 -0.686026 0.580295 0.419706
-0.997468 -1.547165 -3.049537 -0.455763 0.568926 -0.684500 0.616663 0.449553
-0.966320 -1.527130 -3.049537 -0.324778 0.654164 -0.683035 0.658156 0.471731
-0.932523 -1.514792 -3.049537 -0.169561 0.711447 -0.681936 0.703179 0.485389
4 0 1 2 3
4 4 3 5 6
4 7 8 9 10
4 11 12 4 13
4 12 0 3 4
4 10 9 0 12
4 14 15 16 17
4 17 16 18 19
4 19 18 20 21
4 21 20 22 23
4 23 22 24 25
4 25 24 26 27
4 27 26 28 29
4 29 28 30 31
4 31 30 32 33
4 33 32 34 35
4 35 34 36 37
4 37 36 38 39
4 39 38 40 41
4 41 40 42 43
4 43 42 44 45
4 45 44 46 47
4 47 46 48 49
4 49 48 50 51
4 51 50 52 53
4 53 52 54 55
4 55 54 56 57
4 57 56 58 59
4 59 58 60 61
4 61 60 62 63
4 63 62 64 65
4 65 64 66 67
4 67 66 68 69
4 69 68 70 71
4 71 70 72 73
4 73 72 74 75
32 76 77 78 79 80 81 82 83 84 85 86 87 88 89 90 91 92 93 94 95 96 97 98 99 100 101 102 103 104 105 106 107
4 75 74 108 109
4 109 108 110 111
32 112 113 114 115 116 117 118 119 120 121 122 123 124 125 126 127 128 129 130 131 132 133 134 135 136 137 138 139 140 141 142 143
4 144 145 146 147
4 147 146 148 149
4 149 148 150 151
4 151 150 152 153
4 153 152 154 155
4 155 154 156 157
4 157 156 158 159
4 159 158 160 161
4 161 160 162 163
4 163 162 164 165
4 165 164 166 167
4 167 166 168 169
4 169 168 170 171
4 171 170 172 173
4 173 172 174 175
4 175 174 176 177
4 177 176 178 179
4 179 178 180 181
4 181 180 182 183
4 183 182 184 185
4 185 184 186 187
4 187 186 188 189
4 189 188 190 191
4 191 190 192 193
4 193 192 194 195
4 195 194 196 197
4 197 196 198 199
4 199 198 200 201
4 201 200 202 203
4 203 202 204 205
32 206 207 208 209 210 211 212 213 214 215 216 217 218 219 220 221 222 223 224 225 226 227 228 229 230 231 232 233 234 235 236 237
4 205 204 238 239
4 239 238 240 241
32 242 243 244 245 246 247 248 249 250 251 252 253 254 255 256 257 258 259 260 261 262 263 264 265 266 267 268 269 270 271 272 273
4 274 275 276 277
4 277 276 278 279
4 279 278 280 281
4 281 280 282 283
4 283 282 284 285
4 285 284 286 287
4 287 286 288 289
4 289 288 290 291
4 291 290 292 293
4 293 292 294 295
4 295 294 296 297
4 297 296 298 299
4 299 298 300 301
4 301 300 302 303
4 303 302 304 305
4 305 304 306 307
4 307 306 308 309
4 309 308 310 311
4 311 310 312 313
4 313 312 314 315
4 315 314 316 317
4 317 316 318 319
4 319 318 320 321
4 321 320 322 323
4 323 322 324 325
4 325 324 326 327
4 327 326 328 329
4 329 328 330 331
4 331 330 332 333
4 333 332 334 335
32 336 337 338 339 340 341 342 343 344 345 346 347 348 349 350 351 352 353 354 355 356 357 358 359 360 361 362 363 364 365 366 367
4 335 334 368 369
4 369 368 370 371
32 372 373 374 375 376 377 378 379 380 381 382 383 384 385 386 387 388 389 390 391 392 393 394 395 396 397 398 399 400 401 402 403
4 404 405 406 407
4 407 406 408 409
4 409 408 410 411
4 411 410 412 413
4 413 412 414 415
4 415 414 416 417
4 417 416 418 419
4 419 418 420 421
4 421 420 422 423
4 423 422 424 425
4 425 424 426 427
4 427 426 428 429
4 429 428 430 431
4 431 430 432 433
4 433 432 434 435
4 435 434 436 437
4 437 436 438 439
4 439 438 440 441
4 441 440 442 443
4 443 442 444 445
4 445 444 446 447
4 447 446 448 449
4 449 448 450 451
4 451 450 452 453
4 453 452 454 455
4 455 454 456 457
4 457 456 458 459
4 459 458 460 461
4 461 460 462 463
4 463 462 464 465
32 466 467 468 469 470 471 472 473 474 475 476 477 478 479 480 481 482 483 484 485 486 487 488 489 490 491 492 493 494 495 496 497
4 465 464 498 499
4 499 498 500 501
32 502 503 504 505 506 507 508 509 510 511 512 513 514 515 516 517 518 519 520 521 522 523 524 525 526 527 528 529 530 531 532 533
